<svg width="20" height="19" viewBox="0 0 20 19" fill="none" xmlns="http://www.w3.org/2000/svg">
<path d="M19.1523 9.84644C19.1523 11.1069 18.9089 12.2957 18.4219 13.4128C17.9635 14.5014 17.3047 15.4753 16.4453 16.3347C15.6146 17.1654 14.6406 17.8243 13.5234 18.3113C12.4349 18.7696 11.2604 18.9988 10 18.9988C8.73958 18.9988 7.55078 18.7696 6.43359 18.3113C5.34505 17.8243 4.37109 17.1654 3.51172 16.3347C2.68099 15.4753 2.02214 14.5014 1.53516 13.4128C1.07682 12.2957 0.847656 11.1069 0.847656 9.84644C0.847656 8.58602 1.07682 7.39722 1.53516 6.28003C2.02214 5.16284 2.68099 4.18888 3.51172 3.35815L10 9.84644V0.694092C11.2604 0.694092 12.4349 0.937581 13.5234 1.42456C14.6406 1.88289 15.6146 2.54175 16.4453 3.40112C17.3047 4.23185 17.9635 5.20581 18.4219 6.323C18.9089 7.41154 19.1523 8.58602 19.1523 9.84644Z" fill="#4D7381"/>
</svg>
