<svg width="224" height="80" viewBox="0 0 224 80" fill="none" xmlns="http://www.w3.org/2000/svg">
<g opacity="0.5">
<g clip-path="url(#clip0_649_491508)">
<path d="M149.458 45.1251L165.632 11.7266L185.369 54.093L205.29 78.6443L205.045 53.1317L185.369 54.093L171.835 83.6918L143.176 58.4581L140.079 71.6668L127.723 87.1296L118.178 69.4917L103.892 63.6941L93.7949 72.9484L69.552 73.348L48.9089 102.702L49.2677 84.7548L69.552 73.348L78.5647 104.202L93.7949 72.9484L82.6254 61.9412L103.892 63.6941L96.9377 76.7293L118.178 69.4917L90.7919 90.9444L69.552 73.348L46.2081 69.0394L27.5254 84.1215L0 96.9381" stroke="#0085F0" stroke-opacity="0.5" stroke-width="0.75" stroke-linecap="round" stroke-linejoin="round"/>
<path d="M136.728 29.6094L126.34 58.4128L118.177 69.4916L149.457 45.125L118.298 41.2084L140.078 71.6667L143.047 65.8464L171.834 83.6917L140.078 71.6667L118.177 69.4916L143.176 58.458L149.457 45.125L136.728 29.6094ZM136.728 29.6094L118.298 41.2084L118.177 69.4916L103.891 63.694L87.4525 69.9402L82.6251 61.9411L69.5517 73.3479L46.2078 69.0393L22.9395 107.304L49.2675 84.7547L93.7946 72.9483" stroke="#0085F0" stroke-opacity="0.5" stroke-width="0.75" stroke-linecap="round" stroke-linejoin="round"/>
<path d="M185.369 54.0928L195.738 99.8745L171.835 83.6917L156.718 93.2249L127.723 87.1295L96.9377 76.7292L93.795 72.9483L90.792 90.9443L107.949 114.146L127.723 87.1295L142.028 95.253L118.178 69.4916L143.048 65.8464L185.369 54.0928ZM185.369 54.0928L176.024 49.2715L149.458 45.125L126.34 58.4128L103.892 63.694" stroke="#0085F0" stroke-opacity="0.5" stroke-width="0.75" stroke-linecap="round" stroke-linejoin="round"/>
<path d="M156.718 93.2219L162.55 114.143L171.835 83.6886L209.74 93.2219L185.369 54.0898" stroke="#0085F0" stroke-opacity="0.5" stroke-width="0.75" stroke-linecap="round" stroke-linejoin="round"/>
<path d="M184.129 -26.5781L214.986 -11.7448L183.748 -1.52921L185.368 54.0911L224.49 30.1089L183.748 -1.52921L149.457 45.1232" stroke="#0085F0" stroke-opacity="0.5" stroke-width="0.75" stroke-linecap="round" stroke-linejoin="round"/>
<path d="M184.13 -26.5766L224.491 30.1104L176.024 49.2713L183.749 -1.52771L213.019 -33L184.13 -26.5766ZM184.13 -26.5766L183.749 -1.52771L165.633 11.7262L176.024 49.2713L143.048 65.8461L143.176 58.4577L118.299 41.2081L143.048 65.8461L156.718 93.2247L140.079 71.6664" stroke="#0085F0" stroke-opacity="0.5" stroke-width="0.75" stroke-linecap="round" stroke-linejoin="round"/>
<path d="M118.178 69.4922L107.949 114.147" stroke="#0085F0" stroke-opacity="0.5" stroke-width="0.75" stroke-linecap="round" stroke-linejoin="round"/>
<path d="M87.4533 69.9375L69.5526 73.3452L51.2061 108.61" stroke="#0085F0" stroke-opacity="0.5" stroke-width="0.75" stroke-linecap="round" stroke-linejoin="round"/>
<path d="M22.9398 107.304L27.5255 84.1212L10.1573 108.612L46.2082 69.0391L49.2678 84.7545L32.7722 69.0391L8.92969 101.009" stroke="#0085F0" stroke-opacity="0.5" stroke-width="0.75" stroke-linecap="round" stroke-linejoin="round"/>
<path d="M27.5254 84.1212L32.7721 69.0391L48.9089 102.701" stroke="#0085F0" stroke-opacity="0.5" stroke-width="0.75" stroke-linecap="round" stroke-linejoin="round"/>
</g>
</g>
<defs>
<clipPath id="clip0_649_491508">
<rect width="224" height="80" fill="white"/>
</clipPath>
</defs>
</svg>
