<svg width="19" height="18" viewBox="0 0 19 18" fill="none" xmlns="http://www.w3.org/2000/svg">
<path d="M0 15.9844V6.98438H5.01562V18H2.01562C1.48438 18 1.01562 17.7969 0.609375 17.3906C0.203125 16.9844 0 16.5156 0 15.9844ZM17.0156 0C17.5469 0 18 0.203125 18.375 0.609375C18.7812 1.01563 18.9844 1.48438 18.9844 2.01562V5.01562H0V2.01562C0 1.48438 0.203125 1.01563 0.609375 0.609375C1.01562 0.203125 1.48438 0 2.01562 0H17.0156ZM14.0156 18V6.98438H18.9844V15.9844C18.9844 16.5156 18.7812 16.9844 18.375 17.3906C18 17.7969 17.5469 18 17.0156 18H14.0156ZM6.98438 7.03125H12V18H6.98438V7.03125Z" fill="#1B1716"/>
</svg>
