<svg width="14" height="14" viewBox="0 0 14 14" fill="none" xmlns="http://www.w3.org/2000/svg">
<path d="M8.34375 6.65625V4.65625H9V6.65625H8.34375ZM1.65625 3V12.3438H11V13.6562H1.65625C1.30208 13.6562 0.989583 13.5312 0.71875 13.2812C0.46875 13.0104 0.34375 12.6979 0.34375 12.3438V3H1.65625ZM5 5.34375V4.65625H5.65625V5.34375H5ZM12.6562 4.65625V3.65625H10.6562V7.65625H11.6562V6.34375H12.6562V5.34375H11.6562V4.65625H12.6562ZM10 6.65625V4.65625C10 4.38542 9.90625 4.15625 9.71875 3.96875C9.53125 3.76042 9.29167 3.65625 9 3.65625H7.34375V7.65625H9C9.29167 7.65625 9.53125 7.5625 9.71875 7.375C9.90625 7.16667 10 6.92708 10 6.65625ZM6.65625 5.34375V4.65625C6.65625 4.38542 6.55208 4.15625 6.34375 3.96875C6.15625 3.76042 5.92708 3.65625 5.65625 3.65625H4V7.65625H5V6.34375H5.65625C5.92708 6.34375 6.15625 6.25 6.34375 6.0625C6.55208 5.85417 6.65625 5.61458 6.65625 5.34375ZM12.3438 0.34375C12.6979 0.34375 13 0.479167 13.25 0.75C13.5208 1 13.6562 1.30208 13.6562 1.65625V9.65625C13.6562 10.0104 13.5208 10.3229 13.25 10.5938C13 10.8646 12.6979 11 12.3438 11H4.34375C3.98958 11 3.67708 10.8646 3.40625 10.5938C3.13542 10.3229 3 10.0104 3 9.65625V1.65625C3 1.30208 3.13542 1 3.40625 0.75C3.67708 0.479167 3.98958 0.34375 4.34375 0.34375H12.3438Z" fill="#404940"/>
</svg>
