<svg width="12" height="14" viewBox="0 0 12 14" fill="none" xmlns="http://www.w3.org/2000/svg">
<path d="M3.34375 9L6 6.34375L8.65625 9L7.71875 9.96875L6.65625 8.90625V11.6562H5.34375V8.90625L4.28125 9.9375L3.34375 9ZM10 12.3438V5H6.65625V1.65625H2V12.3438H10ZM7.34375 0.34375L11.3438 4.34375V12.3438C11.3438 12.6979 11.2083 13.0104 10.9375 13.2812C10.6667 13.5312 10.3542 13.6562 10 13.6562H2C1.64583 13.6562 1.33333 13.5312 1.0625 13.2812C0.791667 13.0104 0.65625 12.6979 0.65625 12.3438L0.6875 1.65625C0.6875 1.30208 0.8125 1 1.0625 0.75C1.33333 0.479167 1.64583 0.34375 2 0.34375H7.34375Z" fill="#36515B"/>
</svg>
