<svg width="24" height="40" viewBox="0 0 24 40" fill="none" xmlns="http://www.w3.org/2000/svg">
<path opacity="0.5" d="M20.0156 16.0156V14L12 19.0156L3.98438 14V16.0156L12 20.9844L20.0156 16.0156ZM20.0156 11.9844C20.5469 11.9844 21 12.1875 21.375 12.5938C21.7812 13 21.9844 13.4688 21.9844 14V26C21.9844 26.5312 21.7812 27 21.375 27.4062C21 27.8125 20.5469 28.0156 20.0156 28.0156H3.98438C3.45312 28.0156 2.98438 27.8125 2.57812 27.4062C2.20312 27 2.01562 26.5312 2.01562 26V14C2.01562 13.4688 2.20312 13 2.57812 12.5938C2.98438 12.1875 3.45312 11.9844 3.98438 11.9844H20.0156Z" fill="#1B1716"/>
</svg>
