<svg width="20" height="25" viewBox="0 0 20 25" fill="none" xmlns="http://www.w3.org/2000/svg">
<mask id="path-1-inside-1_3_10107" fill="white">
<path d="M16.6875 0.714294C17.3958 0.714294 18 0.985128 18.5 1.52679C19.0417 2.06846 19.3125 2.69346 19.3125 3.40179V24.7143L10 20.7143L0.6875 24.7143V3.40179C0.6875 2.69346 0.9375 2.06846 1.4375 1.52679C1.97917 0.985128 2.60417 0.714294 3.3125 0.714294H16.6875Z"/>
</mask>
<path d="M18.5 1.52679L17.0304 2.88335L17.0575 2.91274L17.0858 2.94101L18.5 1.52679ZM19.3125 24.7143L18.5232 26.5519L21.3125 27.75V24.7143H19.3125ZM10 20.7143L10.7893 18.8766L10 18.5376L9.21067 18.8766L10 20.7143ZM0.6875 24.7143H-1.3125V27.75L1.47683 26.5519L0.6875 24.7143ZM1.4375 1.52679L0.0232864 0.112581L-0.00498653 0.140854L-0.0321069 0.170234L1.4375 1.52679ZM16.6875 2.71429C16.8125 2.71429 16.8916 2.73299 17.0304 2.88335L19.9696 0.170234C19.1084 -0.762735 17.9792 -1.28571 16.6875 -1.28571V2.71429ZM17.0858 2.94101C17.2861 3.14133 17.3125 3.26976 17.3125 3.40179H21.3125C21.3125 2.11716 20.7972 0.995593 19.9142 0.112581L17.0858 2.94101ZM17.3125 3.40179V24.7143H21.3125V3.40179H17.3125ZM20.1018 22.8766L10.7893 18.8766L9.21067 22.5519L18.5232 26.5519L20.1018 22.8766ZM9.21067 18.8766L-0.101827 22.8766L1.47683 26.5519L10.7893 22.5519L9.21067 18.8766ZM2.6875 24.7143V3.40179H-1.3125V24.7143H2.6875ZM2.6875 3.40179C2.6875 3.21834 2.73284 3.07214 2.90711 2.88335L-0.0321069 0.170234C-0.85784 1.06478 -1.3125 2.16858 -1.3125 3.40179H2.6875ZM2.85171 2.94101C3.05203 2.74069 3.18047 2.71429 3.3125 2.71429V-1.28571C2.02787 -1.28571 0.906298 -0.770431 0.0232864 0.112581L2.85171 2.94101ZM3.3125 2.71429H16.6875V-1.28571H3.3125V2.71429Z" fill="#36515B" mask="url(#path-1-inside-1_3_10107)"/>
</svg>
