<svg width="12" height="12" viewBox="0 0 12 12" fill="none" xmlns="http://www.w3.org/2000/svg">
<path d="M0.84375 1.75C0.71875 1.60417 0.666667 1.44792 0.6875 1.28125C0.708333 1.11458 0.78125 0.96875 0.90625 0.84375C1.03125 0.71875 1.1875 0.65625 1.375 0.65625H10.625C10.8125 0.65625 10.9688 0.71875 11.0938 0.84375C11.2188 0.96875 11.2917 1.11458 11.3125 1.28125C11.3333 1.44792 11.2812 1.60417 11.1562 1.75C10.8854 2.08333 10.5833 2.46875 10.25 2.90625C9.91667 3.34375 9.57292 3.78125 9.21875 4.21875C8.88542 4.65625 8.57292 5.0625 8.28125 5.4375C8.01042 5.8125 7.78125 6.11458 7.59375 6.34375C7.42708 6.55208 7.34375 6.65625 7.34375 6.65625V10.6562C7.34375 10.8438 7.27083 11.0104 7.125 11.1562C7 11.2812 6.84375 11.3438 6.65625 11.3438H5.34375C5.15625 11.3438 4.98958 11.2812 4.84375 11.1562C4.71875 11.0104 4.65625 10.8438 4.65625 10.6562V6.65625C4.65625 6.65625 4.5625 6.55208 4.375 6.34375C4.20833 6.11458 3.97917 5.8125 3.6875 5.4375C3.41667 5.0625 3.10417 4.65625 2.75 4.21875C2.41667 3.78125 2.08333 3.34375 1.75 2.90625C1.41667 2.46875 1.11458 2.08333 0.84375 1.75Z" fill="#404940"/>
</svg>
