<svg width="24" height="40" viewBox="0 0 24 40" fill="none" xmlns="http://www.w3.org/2000/svg">
<path opacity="0.5" d="M15.0938 16.0156V14C15.0938 13.1562 14.7812 12.4375 14.1562 11.8438C13.5625 11.2188 12.8438 10.9062 12 10.9062C11.1562 10.9062 10.4219 11.2188 9.79688 11.8438C9.20312 12.4375 8.90625 13.1562 8.90625 14V16.0156H15.0938ZM10.5938 24.4062C11 24.8125 11.4688 25.0156 12 25.0156C12.5312 25.0156 13 24.8125 13.4062 24.4062C13.8125 24 14.0156 23.5312 14.0156 23C14.0156 22.4688 13.8125 22 13.4062 21.5938C13 21.1875 12.5312 20.9844 12 20.9844C11.4688 20.9844 11 21.1875 10.5938 21.5938C10.1875 22 9.98438 22.4688 9.98438 23C9.98438 23.5312 10.1875 24 10.5938 24.4062ZM18 16.0156C18.5312 16.0156 19 16.2188 19.4062 16.625C19.8125 17 20.0156 17.4531 20.0156 17.9844V28.0156C20.0156 28.5469 19.8125 29.0156 19.4062 29.4219C19 29.7969 18.5312 29.9844 18 29.9844H6C5.46875 29.9844 5 29.7969 4.59375 29.4219C4.1875 29.0156 3.98438 28.5469 3.98438 28.0156V17.9844C3.98438 17.4531 4.1875 17 4.59375 16.625C5 16.2188 5.46875 16.0156 6 16.0156H6.98438V14C6.98438 12.625 7.46875 11.4531 8.4375 10.4844C9.4375 9.48438 10.625 8.98438 12 8.98438C13.375 8.98438 14.5469 9.48438 15.5156 10.4844C16.5156 11.4531 17.0156 12.625 17.0156 14V16.0156H18Z" fill="#1B1716"/>
</svg>
