<svg width="18" height="17" viewBox="0 0 18 17" fill="none" xmlns="http://www.w3.org/2000/svg">
<mask id="path-1-inside-1_2017_79954" fill="white">
<path d="M10.6797 3.85718V2.17749H7.32031V3.85718H10.6797ZM15.6797 3.85718C16.1484 3.85718 16.5391 4.02645 16.8516 4.36499C17.1641 4.67749 17.3203 5.06812 17.3203 5.53687V14.6775C17.3203 15.1462 17.1641 15.5499 16.8516 15.8884C16.5391 16.2009 16.1484 16.3572 15.6797 16.3572H2.32031C1.85156 16.3572 1.46094 16.2009 1.14844 15.8884C0.835938 15.5499 0.679688 15.1462 0.679688 14.6775V5.53687C0.679688 5.06812 0.835938 4.67749 1.14844 4.36499C1.46094 4.02645 1.85156 3.85718 2.32031 3.85718H5.67969V2.17749C5.67969 1.70874 5.83594 1.31812 6.14844 1.00562C6.46094 0.693115 6.85156 0.536865 7.32031 0.536865H10.6797C11.1484 0.536865 11.5391 0.693115 11.8516 1.00562C12.1641 1.31812 12.3203 1.70874 12.3203 2.17749V3.85718H15.6797Z"/>
</mask>
<path d="M10.6797 3.85718V5.85718H12.6797V3.85718H10.6797ZM10.6797 2.17749H12.6797V0.17749H10.6797V2.17749ZM7.32031 2.17749V0.17749H5.32031V2.17749H7.32031ZM7.32031 3.85718H5.32031V5.85718H7.32031V3.85718ZM16.8516 4.36499L15.382 5.72155L15.4091 5.75093L15.4373 5.7792L16.8516 4.36499ZM16.8516 15.8884L18.2658 17.3026L18.294 17.2744L18.3212 17.245L16.8516 15.8884ZM1.14844 15.8884L-0.321169 17.245L-0.294049 17.2744L-0.265776 17.3026L1.14844 15.8884ZM1.14844 4.36499L2.56265 5.7792L2.59092 5.75093L2.61804 5.72155L1.14844 4.36499ZM5.67969 3.85718V5.85718H7.67969V3.85718H5.67969ZM12.3203 3.85718H10.3203V5.85718H12.3203V3.85718ZM12.6797 3.85718V2.17749H8.67969V3.85718H12.6797ZM10.6797 0.17749H7.32031V4.17749H10.6797V0.17749ZM5.32031 2.17749V3.85718H9.32031V2.17749H5.32031ZM7.32031 5.85718H10.6797V1.85718H7.32031V5.85718ZM15.6797 5.85718C15.6683 5.85718 15.609 5.85392 15.529 5.81924C15.4482 5.78422 15.399 5.74 15.382 5.72155L18.3212 3.00843C17.6226 2.25167 16.6956 1.85718 15.6797 1.85718V5.85718ZM15.4373 5.7792C15.4119 5.75377 15.3737 5.70389 15.3462 5.63512C15.3196 5.56867 15.3203 5.52792 15.3203 5.53687H19.3203C19.3203 4.57339 18.9779 3.66287 18.2658 2.95078L15.4373 5.7792ZM15.3203 5.53687V14.6775H19.3203V5.53687H15.3203ZM15.3203 14.6775C15.3203 14.6855 15.3198 14.6567 15.338 14.6098C15.3463 14.5883 15.3561 14.5694 15.3657 14.5543C15.3702 14.5471 15.3743 14.5415 15.3773 14.5376C15.3802 14.5337 15.382 14.5318 15.382 14.5319L18.3212 17.245C18.9812 16.5299 19.3203 15.6393 19.3203 14.6775H15.3203ZM15.4373 14.4742C15.4628 14.4488 15.5127 14.4105 15.5814 14.383C15.6479 14.3565 15.6886 14.3572 15.6797 14.3572V18.3572C16.6432 18.3572 17.5537 18.0147 18.2658 17.3026L15.4373 14.4742ZM15.6797 14.3572H2.32031V18.3572H15.6797V14.3572ZM2.32031 14.3572C2.31137 14.3572 2.35212 14.3565 2.41856 14.383C2.48734 14.4105 2.53722 14.4488 2.56265 14.4742L-0.265776 17.3026C0.446315 18.0147 1.35684 18.3572 2.32031 18.3572V14.3572ZM2.61804 14.5319C2.61802 14.5318 2.61975 14.5337 2.62274 14.5376C2.62574 14.5415 2.62975 14.5471 2.63434 14.5543C2.64388 14.5694 2.6537 14.5883 2.66201 14.6098C2.68017 14.6567 2.67969 14.6855 2.67969 14.6775H-1.32031C-1.32031 15.6393 -0.981223 16.5299 -0.321169 17.245L2.61804 14.5319ZM2.67969 14.6775V5.53687H-1.32031V14.6775H2.67969ZM2.67969 5.53687C2.67969 5.52792 2.68041 5.56867 2.65383 5.63512C2.62632 5.70389 2.58808 5.75377 2.56265 5.7792L-0.265776 2.95078C-0.977867 3.66287 -1.32031 4.57339 -1.32031 5.53687H2.67969ZM2.61804 5.72155C2.60102 5.74 2.55182 5.78422 2.471 5.81924C2.39098 5.85392 2.33168 5.85718 2.32031 5.85718V1.85718C1.30442 1.85718 0.377377 2.25167 -0.321169 3.00843L2.61804 5.72155ZM2.32031 5.85718H5.67969V1.85718H2.32031V5.85718ZM7.67969 3.85718V2.17749H3.67969V3.85718H7.67969ZM7.67969 2.17749C7.67969 2.16855 7.68041 2.2093 7.65383 2.27574C7.62632 2.34452 7.58808 2.3944 7.56265 2.41983L4.73422 -0.408598C4.02213 0.303493 3.67969 1.21402 3.67969 2.17749H7.67969ZM7.56265 2.41983C7.53722 2.44526 7.48734 2.4835 7.41856 2.51101C7.35212 2.53758 7.31137 2.53687 7.32031 2.53687V-1.46313C6.35684 -1.46313 5.44631 -1.12069 4.73422 -0.408598L7.56265 2.41983ZM7.32031 2.53687H10.6797V-1.46313H7.32031V2.53687ZM10.6797 2.53687C10.6886 2.53687 10.6479 2.53758 10.5814 2.51101C10.5127 2.4835 10.4628 2.44526 10.4373 2.41983L13.2658 -0.408598C12.5537 -1.12069 11.6432 -1.46313 10.6797 -1.46313V2.53687ZM10.4373 2.41983C10.4119 2.3944 10.3737 2.34452 10.3462 2.27574C10.3196 2.2093 10.3203 2.16855 10.3203 2.17749H14.3203C14.3203 1.21402 13.9779 0.303493 13.2658 -0.408598L10.4373 2.41983ZM10.3203 2.17749V3.85718H14.3203V2.17749H10.3203ZM12.3203 5.85718H15.6797V1.85718H12.3203V5.85718Z" fill="#1B1716" mask="url(#path-1-inside-1_2017_79954)"/>
</svg>
