<svg width="24" height="18" viewBox="0 0 24 18" fill="none" xmlns="http://www.w3.org/2000/svg">
<mask id="path-1-inside-1_2017_80116" fill="white">
<path d="M16.9219 15.0938C17.2031 15.375 17.5625 15.5156 18 15.5156C18.4375 15.5156 18.7969 15.375 19.0781 15.0938C19.3594 14.7812 19.5 14.4219 19.5 14.0156C19.5 13.6094 19.3594 13.2656 19.0781 12.9844C18.7969 12.6719 18.4375 12.5156 18 12.5156C17.5625 12.5156 17.2031 12.6719 16.9219 12.9844C16.6406 13.2656 16.5 13.6094 16.5 14.0156C16.5 14.4219 16.6406 14.7812 16.9219 15.0938ZM19.5 6.51562H17.0156V9H21.4688L19.5 6.51562ZM4.92188 15.0938C5.20312 15.375 5.5625 15.5156 6 15.5156C6.4375 15.5156 6.79688 15.375 7.07812 15.0938C7.35938 14.7812 7.5 14.4219 7.5 14.0156C7.5 13.6094 7.35938 13.2656 7.07812 12.9844C6.79688 12.6719 6.4375 12.5156 6 12.5156C5.5625 12.5156 5.20312 12.6719 4.92188 12.9844C4.64062 13.2656 4.5 13.6094 4.5 14.0156C4.5 14.4219 4.64062 14.7812 4.92188 15.0938ZM20.0156 5.01562L23.0156 9V14.0156H21C21 14.8281 20.7031 15.5312 20.1094 16.125C19.5156 16.7188 18.8125 17.0156 18 17.0156C17.1875 17.0156 16.4844 16.7188 15.8906 16.125C15.2969 15.5312 15 14.8281 15 14.0156H9C9 14.8281 8.70312 15.5312 8.10938 16.125C7.51562 16.7188 6.8125 17.0156 6 17.0156C5.1875 17.0156 4.48438 16.7188 3.89062 16.125C3.29688 15.5312 3 14.8281 3 14.0156H0.984375V3C0.984375 2.46875 1.1875 2 1.59375 1.59375C2 1.1875 2.46875 0.984375 3 0.984375H17.0156V5.01562H20.0156Z"/>
</mask>
<path d="M16.9219 15.0938C17.2031 15.375 17.5625 15.5156 18 15.5156C18.4375 15.5156 18.7969 15.375 19.0781 15.0938C19.3594 14.7812 19.5 14.4219 19.5 14.0156C19.5 13.6094 19.3594 13.2656 19.0781 12.9844C18.7969 12.6719 18.4375 12.5156 18 12.5156C17.5625 12.5156 17.2031 12.6719 16.9219 12.9844C16.6406 13.2656 16.5 13.6094 16.5 14.0156C16.5 14.4219 16.6406 14.7812 16.9219 15.0938ZM19.5 6.51562H17.0156V9H21.4688L19.5 6.51562ZM4.92188 15.0938C5.20312 15.375 5.5625 15.5156 6 15.5156C6.4375 15.5156 6.79688 15.375 7.07812 15.0938C7.35938 14.7812 7.5 14.4219 7.5 14.0156C7.5 13.6094 7.35938 13.2656 7.07812 12.9844C6.79688 12.6719 6.4375 12.5156 6 12.5156C5.5625 12.5156 5.20312 12.6719 4.92188 12.9844C4.64062 13.2656 4.5 13.6094 4.5 14.0156C4.5 14.4219 4.64062 14.7812 4.92188 15.0938ZM20.0156 5.01562L23.0156 9V14.0156H21C21 14.8281 20.7031 15.5312 20.1094 16.125C19.5156 16.7188 18.8125 17.0156 18 17.0156C17.1875 17.0156 16.4844 16.7188 15.8906 16.125C15.2969 15.5312 15 14.8281 15 14.0156H9C9 14.8281 8.70312 15.5312 8.10938 16.125C7.51562 16.7188 6.8125 17.0156 6 17.0156C5.1875 17.0156 4.48438 16.7188 3.89062 16.125C3.29688 15.5312 3 14.8281 3 14.0156H0.984375V3C0.984375 2.46875 1.1875 2 1.59375 1.59375C2 1.1875 2.46875 0.984375 3 0.984375H17.0156V5.01562H20.0156Z" fill="#1B1716"/>
<path d="M16.9219 15.0938L15.4353 16.4317L15.4705 16.4708L15.5077 16.508L16.9219 15.0938ZM19.0781 15.0938L20.4923 16.508L20.5295 16.4708L20.5647 16.4317L19.0781 15.0938ZM19.0781 12.9844L17.5915 14.3223L17.6267 14.3614L17.6639 14.3986L19.0781 12.9844ZM16.9219 12.9844L18.3361 14.3986L18.3733 14.3614L18.4085 14.3223L16.9219 12.9844ZM19.5 6.51562L21.0675 5.27346L20.4669 4.51562H19.5V6.51562ZM17.0156 6.51562V4.51562H15.0156V6.51562H17.0156ZM17.0156 9H15.0156V11H17.0156V9ZM21.4688 9V11H25.6055L23.0362 7.75784L21.4688 9ZM4.92188 15.0938L3.43529 16.4317L3.47047 16.4708L3.50766 16.508L4.92188 15.0938ZM7.07812 15.0938L8.49234 16.508L8.52953 16.4708L8.56471 16.4317L7.07812 15.0938ZM7.07812 12.9844L5.59154 14.3223L5.62672 14.3614L5.66391 14.3986L7.07812 12.9844ZM4.92188 12.9844L6.33609 14.3986L6.37328 14.3614L6.40846 14.3223L4.92188 12.9844ZM20.0156 5.01562L21.6134 3.81262L21.0133 3.01562H20.0156V5.01562ZM23.0156 9H25.0156V8.33124L24.6134 7.79699L23.0156 9ZM23.0156 14.0156V16.0156H25.0156V14.0156H23.0156ZM21 14.0156V12.0156H19V14.0156H21ZM15 14.0156H17V12.0156H15V14.0156ZM9 14.0156V12.0156H7V14.0156H9ZM3 14.0156H5V12.0156H3V14.0156ZM0.984375 14.0156H-1.01562V16.0156H0.984375V14.0156ZM17.0156 0.984375H19.0156V-1.01562H17.0156V0.984375ZM17.0156 5.01562H15.0156V7.01562H17.0156V5.01562ZM15.5077 16.508C16.2033 17.2036 17.0903 17.5156 18 17.5156V13.5156C17.9975 13.5156 18.0497 13.5158 18.1311 13.5477C18.2164 13.581 18.2877 13.6312 18.3361 13.6795L15.5077 16.508ZM18 17.5156C18.9097 17.5156 19.7967 17.2036 20.4923 16.508L17.6639 13.6795C17.7123 13.6312 17.7836 13.581 17.8689 13.5477C17.9503 13.5158 18.0025 13.5156 18 13.5156V17.5156ZM20.5647 16.4317C21.1638 15.766 21.5 14.9346 21.5 14.0156H17.5C17.5 13.9827 17.5068 13.9257 17.532 13.861C17.5569 13.7975 17.5857 13.7623 17.5915 13.7558L20.5647 16.4317ZM21.5 14.0156C21.5 13.0917 21.1576 12.2354 20.4923 11.5702L17.6639 14.3986C17.6302 14.3649 17.5807 14.3014 17.5434 14.2104C17.5066 14.1202 17.5 14.0477 17.5 14.0156H21.5ZM20.5647 11.6464C19.887 10.8935 18.9783 10.5156 18 10.5156V14.5156C17.9764 14.5156 17.8999 14.5103 17.8002 14.467C17.6985 14.4227 17.6283 14.3631 17.5915 14.3223L20.5647 11.6464ZM18 10.5156C17.0217 10.5156 16.113 10.8935 15.4353 11.6464L18.4085 14.3223C18.3717 14.3631 18.3015 14.4227 18.1998 14.467C18.1001 14.5103 18.0236 14.5156 18 14.5156V10.5156ZM15.5077 11.5702C14.8424 12.2354 14.5 13.0917 14.5 14.0156H18.5C18.5 14.0477 18.4934 14.1202 18.4566 14.2104C18.4193 14.3014 18.3698 14.3649 18.3361 14.3986L15.5077 11.5702ZM14.5 14.0156C14.5 14.9346 14.8362 15.766 15.4353 16.4317L18.4085 13.7558C18.4143 13.7623 18.4431 13.7975 18.468 13.861C18.4932 13.9257 18.5 13.9827 18.5 14.0156H14.5ZM19.5 4.51562H17.0156V8.51562H19.5V4.51562ZM15.0156 6.51562V9H19.0156V6.51562H15.0156ZM17.0156 11H21.4688V7H17.0156V11ZM23.0362 7.75784L21.0675 5.27346L17.9325 7.75779L19.9013 10.2422L23.0362 7.75784ZM3.50766 16.508C4.20325 17.2036 5.09031 17.5156 6 17.5156V13.5156C5.99755 13.5156 6.04966 13.5158 6.13114 13.5477C6.21636 13.581 6.28774 13.6312 6.33609 13.6795L3.50766 16.508ZM6 17.5156C6.90969 17.5156 7.79675 17.2036 8.49234 16.508L5.66391 13.6795C5.71226 13.6312 5.78364 13.581 5.86886 13.5477C5.95034 13.5158 6.00245 13.5156 6 13.5156V17.5156ZM8.56471 16.4317C9.16381 15.766 9.5 14.9346 9.5 14.0156H5.5C5.5 13.9827 5.50675 13.9257 5.53205 13.861C5.55691 13.7975 5.58567 13.7623 5.59154 13.7558L8.56471 16.4317ZM9.5 14.0156C9.5 13.0917 9.15755 12.2354 8.49234 11.5702L5.66391 14.3986C5.63022 14.3649 5.58066 14.3014 5.54344 14.2104C5.50656 14.1202 5.5 14.0477 5.5 14.0156H9.5ZM8.56471 11.6464C7.88704 10.8935 6.97834 10.5156 6 10.5156V14.5156C5.97639 14.5156 5.89994 14.5103 5.8002 14.467C5.69853 14.4227 5.62827 14.3631 5.59154 14.3223L8.56471 11.6464ZM6 10.5156C5.02166 10.5156 4.11296 10.8935 3.43529 11.6464L6.40846 14.3223C6.37173 14.3631 6.30147 14.4227 6.1998 14.467C6.10006 14.5103 6.02361 14.5156 6 14.5156V10.5156ZM3.50766 11.5702C2.84245 12.2354 2.5 13.0917 2.5 14.0156H6.5C6.5 14.0477 6.49344 14.1202 6.45656 14.2104C6.41934 14.3014 6.36978 14.3649 6.33609 14.3986L3.50766 11.5702ZM2.5 14.0156C2.5 14.9346 2.83619 15.766 3.43529 16.4317L6.40846 13.7558C6.41433 13.7623 6.44309 13.7975 6.46795 13.861C6.49325 13.9257 6.5 13.9827 6.5 14.0156H2.5ZM18.4179 6.21863L21.4179 10.203L24.6134 7.79699L21.6134 3.81262L18.4179 6.21863ZM21.0156 9V14.0156H25.0156V9H21.0156ZM23.0156 12.0156H21V16.0156H23.0156V12.0156ZM19 14.0156C19 14.2782 18.9279 14.4781 18.6952 14.7108L21.5236 17.5392C22.4784 16.5844 23 15.3781 23 14.0156H19ZM18.6952 14.7108C18.4625 14.9435 18.2626 15.0156 18 15.0156V19.0156C19.3624 19.0156 20.5688 18.494 21.5236 17.5392L18.6952 14.7108ZM18 15.0156C17.7374 15.0156 17.5375 14.9435 17.3048 14.7108L14.4764 17.5392C15.4312 18.494 16.6376 19.0156 18 19.0156V15.0156ZM17.3048 14.7108C17.0721 14.4781 17 14.2782 17 14.0156H13C13 15.3781 13.5216 16.5844 14.4764 17.5392L17.3048 14.7108ZM15 12.0156H9V16.0156H15V12.0156ZM7 14.0156C7 14.2782 6.92787 14.4781 6.69516 14.7108L9.52359 17.5392C10.4784 16.5844 11 15.3781 11 14.0156H7ZM6.69516 14.7108C6.46246 14.9435 6.26255 15.0156 6 15.0156V19.0156C7.36245 19.0156 8.56879 18.494 9.52359 17.5392L6.69516 14.7108ZM6 15.0156C5.73745 15.0156 5.53754 14.9435 5.30484 14.7108L2.47641 17.5392C3.43121 18.494 4.63755 19.0156 6 19.0156V15.0156ZM5.30484 14.7108C5.07213 14.4781 5 14.2782 5 14.0156H1C1 15.3781 1.52162 16.5844 2.47641 17.5392L5.30484 14.7108ZM3 12.0156H0.984375V16.0156H3V12.0156ZM2.98438 14.0156V3H-1.01562V14.0156H2.98438ZM2.98438 3C2.98438 2.9954 2.98473 3.00009 2.98244 3.0114C2.98135 3.01674 2.97986 3.02263 2.97793 3.02876C2.976 3.03489 2.97389 3.04045 2.97183 3.04521C2.96746 3.05531 2.96493 3.05808 2.96836 3.05314C2.97205 3.04785 2.98353 3.03239 3.00796 3.00796L0.179536 0.179536C-0.568059 0.927132 -1.01562 1.89245 -1.01562 3H2.98438ZM3.00796 3.00796C3.03239 2.98353 3.04785 2.97205 3.05314 2.96836C3.05808 2.96493 3.05531 2.96746 3.04521 2.97183C3.04045 2.97389 3.03489 2.976 3.02876 2.97793C3.02263 2.97986 3.01674 2.98135 3.0114 2.98244C3.00009 2.98473 2.9954 2.98438 3 2.98438V-1.01562C1.89245 -1.01562 0.927132 -0.568059 0.179536 0.179536L3.00796 3.00796ZM3 2.98438H17.0156V-1.01562H3V2.98438ZM15.0156 0.984375V5.01562H19.0156V0.984375H15.0156ZM17.0156 7.01562H20.0156V3.01562H17.0156V7.01562Z" fill="#1B1716" mask="url(#path-1-inside-1_2017_80116)"/>
</svg>
