<svg width="20" height="21" viewBox="0 0 20 21" fill="none" xmlns="http://www.w3.org/2000/svg">
<mask id="path-1-inside-1_2017_86432" fill="white">
<path d="M7.51562 13.3416C8.20312 14.0291 9.03125 14.3728 10 14.3728C10.9688 14.3728 11.7969 14.0291 12.4844 13.3416C13.1719 12.6541 13.5156 11.8259 13.5156 10.8572C13.5156 9.88843 13.1719 9.0603 12.4844 8.3728C11.7969 7.6853 10.9688 7.34155 10 7.34155C9.03125 7.34155 8.20312 7.6853 7.51562 8.3728C6.82812 9.0603 6.48438 9.88843 6.48438 10.8572C6.48438 11.8259 6.82812 12.6541 7.51562 13.3416ZM17.4531 11.8416L19.5625 13.4822C19.7812 13.6384 19.8125 13.8572 19.6562 14.1384L17.6406 17.6072C17.5156 17.8259 17.3125 17.8884 17.0312 17.7947L14.5469 16.8103C13.8906 17.2791 13.3281 17.6072 12.8594 17.7947L12.4844 20.4197C12.4219 20.7009 12.2656 20.8416 12.0156 20.8416H7.98438C7.73438 20.8416 7.57812 20.7009 7.51562 20.4197L7.14062 17.7947C6.54688 17.5447 5.98438 17.2166 5.45312 16.8103L2.96875 17.7947C2.6875 17.8884 2.48438 17.8259 2.35938 17.6072L0.34375 14.1384C0.1875 13.8572 0.21875 13.6384 0.4375 13.4822L2.54688 11.8416C2.51562 11.6228 2.5 11.2947 2.5 10.8572C2.5 10.4197 2.51562 10.0916 2.54688 9.8728L0.4375 8.23218C0.21875 8.07593 0.1875 7.85718 0.34375 7.57593L2.35938 4.10718C2.48438 3.88843 2.6875 3.82593 2.96875 3.91968L5.45312 4.90405C6.10938 4.4353 6.67188 4.10718 7.14062 3.91968L7.51562 1.29468C7.57812 1.01343 7.73438 0.872803 7.98438 0.872803H12.0156C12.2656 0.872803 12.4219 1.01343 12.4844 1.29468L12.8594 3.91968C13.4531 4.16968 14.0156 4.4978 14.5469 4.90405L17.0312 3.91968C17.3125 3.82593 17.5156 3.88843 17.6406 4.10718L19.6562 7.57593C19.8125 7.85718 19.7812 8.07593 19.5625 8.23218L17.4531 9.8728C17.4844 10.0916 17.5 10.4197 17.5 10.8572C17.5 11.2947 17.4844 11.6228 17.4531 11.8416Z"/>
</mask>
<path d="M17.4531 11.8416L15.4732 11.5587L15.3091 12.7077L16.2252 13.4203L17.4531 11.8416ZM19.5625 13.4822L18.3346 15.0609L18.3668 15.0859L18.4 15.1096L19.5625 13.4822ZM19.6562 14.1384L21.3855 15.1433L21.3952 15.1266L21.4046 15.1097L19.6562 14.1384ZM17.6406 17.6072L15.9114 16.6023L15.9077 16.6086L15.9041 16.6149L17.6406 17.6072ZM17.0312 17.7947L16.2945 19.654L16.3461 19.6745L16.3988 19.692L17.0312 17.7947ZM14.5469 16.8103L15.2836 14.9509L14.2708 14.5497L13.3844 15.1828L14.5469 16.8103ZM12.8594 17.7947L12.1166 15.9377L11.043 16.3672L10.8795 17.5118L12.8594 17.7947ZM12.4844 20.4197L14.4367 20.8535L14.4534 20.7786L14.4643 20.7025L12.4844 20.4197ZM7.51562 20.4197L5.53573 20.7025L5.54659 20.7786L5.56325 20.8535L7.51562 20.4197ZM7.14062 17.7947L9.12052 17.5118L8.96038 16.3908L7.91674 15.9514L7.14062 17.7947ZM5.45312 16.8103L6.66803 15.2216L5.7688 14.5339L4.7164 14.9509L5.45312 16.8103ZM2.96875 17.7947L3.60121 19.692L3.65387 19.6745L3.70548 19.654L2.96875 17.7947ZM2.35938 17.6072L4.09586 16.6149L4.09227 16.6086L4.08863 16.6023L2.35938 17.6072ZM0.34375 14.1384L-1.40456 15.1097L-1.39519 15.1266L-1.3855 15.1433L0.34375 14.1384ZM0.4375 13.4822L1.59998 15.1096L1.63318 15.0859L1.66538 15.0609L0.4375 13.4822ZM2.54688 11.8416L3.77476 13.4203L4.69091 12.7077L4.52677 11.5587L2.54688 11.8416ZM2.54688 9.8728L4.52677 10.1556L4.69091 9.00667L3.77476 8.2941L2.54688 9.8728ZM0.4375 8.23218L1.66538 6.65347L1.63318 6.62842L1.59998 6.60471L0.4375 8.23218ZM0.34375 7.57593L-1.3855 6.57109L-1.39519 6.58778L-1.40456 6.60464L0.34375 7.57593ZM2.35938 4.10718L4.08863 5.11201L4.09227 5.10575L4.09586 5.09946L2.35938 4.10718ZM2.96875 3.91968L3.70548 2.06031L3.65387 2.03987L3.60121 2.02231L2.96875 3.91968ZM5.45312 4.90405L4.7164 6.76342L5.72915 7.1647L6.6156 6.53152L5.45312 4.90405ZM7.14062 3.91968L7.88341 5.77663L8.957 5.34719L9.12052 4.20252L7.14062 3.91968ZM7.51562 1.29468L5.56325 0.860817L5.54659 0.935797L5.53573 1.01184L7.51562 1.29468ZM12.4844 1.29468L14.4643 1.01184L14.4534 0.935797L14.4367 0.860817L12.4844 1.29468ZM12.8594 3.91968L10.8795 4.20252L11.0396 5.32352L12.0833 5.76295L12.8594 3.91968ZM14.5469 4.90405L13.332 6.49277L14.2312 7.18041L15.2836 6.76342L14.5469 4.90405ZM17.0312 3.91968L16.3988 2.02231L16.3461 2.03987L16.2945 2.06031L17.0312 3.91968ZM17.6406 4.10718L15.9041 5.09946L15.9077 5.10575L15.9114 5.11201L17.6406 4.10718ZM19.6562 7.57593L21.4046 6.60464L21.3952 6.58778L21.3855 6.57109L19.6562 7.57593ZM19.5625 8.23218L18.4 6.60471L18.3668 6.62842L18.3346 6.65347L19.5625 8.23218ZM17.4531 9.8728L16.2252 8.2941L15.3091 9.00667L15.4732 10.1556L17.4531 9.8728ZM6.10141 14.7558C7.16245 15.8168 8.49865 16.3728 10 16.3728V12.3728C9.56385 12.3728 9.2438 12.2413 8.92984 11.9273L6.10141 14.7558ZM10 16.3728C11.5014 16.3728 12.8376 15.8168 13.8986 14.7558L11.0702 11.9273C10.7562 12.2413 10.4361 12.3728 10 12.3728V16.3728ZM13.8986 14.7558C14.9596 13.6947 15.5156 12.3585 15.5156 10.8572H11.5156C11.5156 11.2933 11.3841 11.6134 11.0702 11.9273L13.8986 14.7558ZM15.5156 10.8572C15.5156 9.35583 14.9596 8.01963 13.8986 6.95859L11.0702 9.78702C11.3841 10.101 11.5156 10.421 11.5156 10.8572H15.5156ZM13.8986 6.95859C12.8376 5.89755 11.5014 5.34155 10 5.34155V9.34155C10.4361 9.34155 10.7562 9.47305 11.0702 9.78702L13.8986 6.95859ZM10 5.34155C8.49865 5.34155 7.16245 5.89755 6.10141 6.95859L8.92984 9.78702C9.2438 9.47305 9.56385 9.34155 10 9.34155V5.34155ZM6.10141 6.95859C5.04037 8.01963 4.48438 9.35583 4.48438 10.8572H8.48438C8.48438 10.421 8.61588 10.101 8.92984 9.78702L6.10141 6.95859ZM4.48438 10.8572C4.48438 12.3585 5.04037 13.6947 6.10141 14.7558L8.92984 11.9273C8.61588 11.6134 8.48438 11.2933 8.48438 10.8572H4.48438ZM16.2252 13.4203L18.3346 15.0609L20.7904 11.9035L18.681 10.2628L16.2252 13.4203ZM18.4 15.1096C18.168 14.9439 17.8481 14.592 17.7701 14.0463C17.7015 13.566 17.8672 13.2406 17.9079 13.1671L21.4046 15.1097C21.6016 14.7551 21.8298 14.1796 21.7299 13.4806C21.6207 12.7161 21.1757 12.1767 20.725 11.8547L18.4 15.1096ZM17.927 13.1336L15.9114 16.6023L19.3699 18.612L21.3855 15.1433L17.927 13.1336ZM15.9041 16.6149C16.044 16.3702 16.3342 16.0518 16.8064 15.9066C17.2328 15.7753 17.5606 15.863 17.6637 15.8973L16.3988 19.692C16.7831 19.8202 17.3531 19.9234 17.9827 19.7297C18.658 19.5219 19.1123 19.0629 19.3771 18.5995L15.9041 16.6149ZM17.768 15.9353L15.2836 14.9509L13.8101 18.6697L16.2945 19.654L17.768 15.9353ZM13.3844 15.1828C12.7909 15.6068 12.3756 15.8341 12.1166 15.9377L13.6022 19.6516C14.2806 19.3803 14.9904 18.9513 15.7094 18.4378L13.3844 15.1828ZM10.8795 17.5118L10.5045 20.1368L14.4643 20.7025L14.8393 18.0775L10.8795 17.5118ZM10.532 19.9858C10.5583 19.8673 10.6553 19.5439 10.9824 19.2495C11.3389 18.9287 11.7453 18.8416 12.0156 18.8416V22.8416C12.5359 22.8416 13.1455 22.6841 13.6582 22.2227C14.1416 21.7877 14.3479 21.2533 14.4367 20.8535L10.532 19.9858ZM12.0156 18.8416H7.98438V22.8416H12.0156V18.8416ZM7.98438 18.8416C8.25466 18.8416 8.66114 18.9287 9.01762 19.2495C9.34469 19.5439 9.44167 19.8673 9.468 19.9858L5.56325 20.8535C5.65208 21.2533 5.85843 21.7877 6.34176 22.2227C6.85448 22.6841 7.46409 22.8416 7.98438 22.8416V18.8416ZM9.49552 20.1368L9.12052 17.5118L5.16073 18.0775L5.53573 20.7025L9.49552 20.1368ZM7.91674 15.9514C7.48533 15.7698 7.06956 15.5286 6.66803 15.2216L4.23822 18.399C4.89919 18.9045 5.60842 19.3196 6.36451 19.6379L7.91674 15.9514ZM4.7164 14.9509L2.23202 15.9353L3.70548 19.654L6.18985 18.6697L4.7164 14.9509ZM2.33629 15.8973C2.43937 15.863 2.76718 15.7753 3.19364 15.9066C3.66577 16.0518 3.95601 16.3702 4.09586 16.6149L0.622889 18.5995C0.887736 19.0629 1.34204 19.5219 2.0173 19.7297C2.64688 19.9234 3.21688 19.8202 3.60121 19.692L2.33629 15.8973ZM4.08863 16.6023L2.073 13.1336L-1.3855 15.1433L0.630125 18.612L4.08863 16.6023ZM2.09206 13.1671C2.13285 13.2406 2.29851 13.566 2.2299 14.0463C2.15193 14.592 1.83196 14.9439 1.59998 15.1096L-0.724976 11.8547C-1.17571 12.1767 -1.62068 12.7161 -1.7299 13.4806C-1.82976 14.1796 -1.6016 14.7551 -1.40456 15.1097L2.09206 13.1671ZM1.66538 15.0609L3.77476 13.4203L1.31899 10.2628L-0.790381 11.9035L1.66538 15.0609ZM4.52677 11.5587C4.51629 11.4853 4.5 11.2728 4.5 10.8572H0.5C0.5 11.3166 0.514961 11.7603 0.566976 12.1244L4.52677 11.5587ZM4.5 10.8572C4.5 10.4416 4.51629 10.229 4.52677 10.1556L0.566976 9.58996C0.514961 9.95406 0.5 10.3978 0.5 10.8572H4.5ZM3.77476 8.2941L1.66538 6.65347L-0.790381 9.81088L1.31899 11.4515L3.77476 8.2941ZM1.59998 6.60471C1.83196 6.77041 2.15193 7.12231 2.2299 7.66809C2.29851 8.14834 2.13285 8.4738 2.09206 8.54721L-1.40456 6.60464C-1.6016 6.9593 -1.82976 7.53476 -1.7299 8.23377C-1.62068 8.9983 -1.17571 9.53769 -0.724976 9.85964L1.59998 6.60471ZM2.073 8.58076L4.08863 5.11201L0.630125 3.10234L-1.3855 6.57109L2.073 8.58076ZM4.09586 5.09946C3.95601 5.34419 3.66577 5.66253 3.19364 5.8078C2.76718 5.93902 2.43937 5.8514 2.33629 5.81704L3.60121 2.02231C3.21688 1.8942 2.64688 1.79096 2.0173 1.98468C1.34204 2.19245 0.887736 2.65142 0.622889 3.1149L4.09586 5.09946ZM2.23202 5.77904L4.7164 6.76342L6.18985 3.04469L3.70548 2.06031L2.23202 5.77904ZM6.6156 6.53152C7.20912 6.10758 7.62435 5.88025 7.88341 5.77663L6.39784 2.06272C5.7194 2.3341 5.00963 2.76303 4.29065 3.27659L6.6156 6.53152ZM9.12052 4.20252L9.49552 1.57752L5.53573 1.01184L5.16073 3.63684L9.12052 4.20252ZM9.468 1.72854C9.44167 1.84702 9.34469 2.17049 9.01762 2.46486C8.66114 2.78569 8.25466 2.8728 7.98438 2.8728V-1.1272C7.46409 -1.1272 6.85448 -0.969771 6.34176 -0.508317C5.85843 -0.073326 5.65208 0.461088 5.56325 0.860817L9.468 1.72854ZM7.98438 2.8728H12.0156V-1.1272H7.98438V2.8728ZM12.0156 2.8728C11.7453 2.8728 11.3389 2.78569 10.9824 2.46486C10.6553 2.17049 10.5583 1.84702 10.532 1.72854L14.4367 0.860817C14.3479 0.461088 14.1416 -0.073326 13.6582 -0.508317C13.1455 -0.969771 12.5359 -1.1272 12.0156 -1.1272V2.8728ZM10.5045 1.57752L10.8795 4.20252L14.8393 3.63684L14.4643 1.01184L10.5045 1.57752ZM12.0833 5.76295C12.5147 5.94459 12.9304 6.18571 13.332 6.49277L15.7618 3.31534C15.1008 2.80989 14.3916 2.39476 13.6355 2.07641L12.0833 5.76295ZM15.2836 6.76342L17.768 5.77904L16.2945 2.06031L13.8101 3.04469L15.2836 6.76342ZM17.6637 5.81704C17.5606 5.8514 17.2328 5.93902 16.8064 5.8078C16.3342 5.66253 16.044 5.34419 15.9041 5.09946L19.3771 3.1149C19.1123 2.65142 18.658 2.19245 17.9827 1.98468C17.3531 1.79096 16.7831 1.8942 16.3988 2.02231L17.6637 5.81704ZM15.9114 5.11201L17.927 8.58076L21.3855 6.57109L19.3699 3.10234L15.9114 5.11201ZM17.9079 8.54721C17.8672 8.4738 17.7015 8.14834 17.7701 7.66809C17.8481 7.12231 18.168 6.77041 18.4 6.60471L20.725 9.85964C21.1757 9.53769 21.6207 8.9983 21.7299 8.23377C21.8298 7.53476 21.6016 6.9593 21.4046 6.60464L17.9079 8.54721ZM18.3346 6.65347L16.2252 8.2941L18.681 11.4515L20.7904 9.81088L18.3346 6.65347ZM15.4732 10.1556C15.4837 10.229 15.5 10.4416 15.5 10.8572H19.5C19.5 10.3978 19.485 9.95406 19.433 9.58996L15.4732 10.1556ZM15.5 10.8572C15.5 11.2728 15.4837 11.4853 15.4732 11.5587L19.433 12.1244C19.485 11.7603 19.5 11.3166 19.5 10.8572H15.5Z" fill="#1B1716" mask="url(#path-1-inside-1_2017_86432)"/>
</svg>
