<svg width="24" height="24" viewBox="0 0 24 24" fill="none" xmlns="http://www.w3.org/2000/svg">
<mask id="path-1-inside-1_2017_80095" fill="white">
<path d="M18.9844 2.85718C19.5469 2.85718 20.0156 3.0603 20.3906 3.46655C20.7969 3.84155 21 4.3103 21 4.8728V18.8416C21 19.4041 20.7969 19.8884 20.3906 20.2947C20.0156 20.6697 19.5469 20.8572 18.9844 20.8572H5.01562C4.45312 20.8572 3.96875 20.6697 3.5625 20.2947C3.1875 19.8884 3 19.4041 3 18.8416V4.8728C3 4.3103 3.1875 3.84155 3.5625 3.46655C3.96875 3.0603 4.45312 2.85718 5.01562 2.85718H18.9844ZM14.0156 16.8728V14.8572H6.98438V16.8728H14.0156ZM17.0156 12.8416V10.8728H6.98438V12.8416H17.0156ZM17.0156 8.85718V6.84155H6.98438V8.85718H17.0156Z"/>
</mask>
<path d="M18.9844 2.85718C19.5469 2.85718 20.0156 3.0603 20.3906 3.46655C20.7969 3.84155 21 4.3103 21 4.8728V18.8416C21 19.4041 20.7969 19.8884 20.3906 20.2947C20.0156 20.6697 19.5469 20.8572 18.9844 20.8572H5.01562C4.45312 20.8572 3.96875 20.6697 3.5625 20.2947C3.1875 19.8884 3 19.4041 3 18.8416V4.8728C3 4.3103 3.1875 3.84155 3.5625 3.46655C3.96875 3.0603 4.45312 2.85718 5.01562 2.85718H18.9844ZM14.0156 16.8728V14.8572H6.98438V16.8728H14.0156ZM17.0156 12.8416V10.8728H6.98438V12.8416H17.0156ZM17.0156 8.85718V6.84155H6.98438V8.85718H17.0156Z" fill="#1B1716"/>
<path d="M20.3906 3.46655L18.921 4.82311L18.9753 4.8819L19.0341 4.93616L20.3906 3.46655ZM3.5625 20.2947L2.09289 21.6512L2.14716 21.71L2.20594 21.7643L3.5625 20.2947ZM14.0156 16.8728V18.8728H16.0156V16.8728H14.0156ZM14.0156 14.8572H16.0156V12.8572H14.0156V14.8572ZM6.98438 14.8572V12.8572H4.98438V14.8572H6.98438ZM6.98438 16.8728H4.98438V18.8728H6.98438V16.8728ZM17.0156 12.8416V14.8416H19.0156V12.8416H17.0156ZM17.0156 10.8728H19.0156V8.8728H17.0156V10.8728ZM6.98438 10.8728V8.8728H4.98438V10.8728H6.98438ZM6.98438 12.8416H4.98438V14.8416H6.98438V12.8416ZM17.0156 8.85718V10.8572H19.0156V8.85718H17.0156ZM17.0156 6.84155H19.0156V4.84155H17.0156V6.84155ZM6.98438 6.84155V4.84155H4.98438V6.84155H6.98438ZM6.98438 8.85718H4.98438V10.8572H6.98438V8.85718ZM18.9844 4.85718C19.0043 4.85718 19.0091 4.85893 19.0022 4.85756C18.9947 4.85609 18.9804 4.85236 18.9626 4.84463C18.9447 4.83688 18.9303 4.82817 18.9208 4.82131C18.9117 4.8147 18.9121 4.81349 18.921 4.82311L21.8602 2.10999C21.0992 1.28553 20.094 0.857178 18.9844 0.857178V4.85718ZM19.0341 4.93616C19.0437 4.94504 19.0425 4.94551 19.0359 4.93636C19.029 4.92686 19.0203 4.91246 19.0125 4.89458C19.0048 4.87675 19.0011 4.86247 18.9996 4.85502C18.9982 4.84805 19 4.8529 19 4.8728H23C23 3.76316 22.5717 2.75799 21.7472 1.99695L19.0341 4.93616ZM19 4.8728V18.8416H23V4.8728H19ZM19 18.8416C19 18.8613 18.9983 18.8692 18.9985 18.8678C18.9989 18.8662 19.0002 18.8605 19.0033 18.8533C19.0063 18.8461 19.0084 18.8434 19.0066 18.846C19.0046 18.8489 18.9961 18.8607 18.9764 18.8805L21.8048 21.7089C22.5772 20.9366 23 19.9471 23 18.8416H19ZM18.9764 18.8805C18.9715 18.8853 18.9734 18.8827 18.9824 18.8767C18.9867 18.8738 18.9918 18.8707 18.9977 18.8676C19.0036 18.8645 19.0095 18.8618 19.015 18.8596C19.0268 18.8549 19.0331 18.8539 19.0309 18.8543C19.0283 18.8548 19.0137 18.8572 18.9844 18.8572V22.8572C20.0416 22.8572 21.0302 22.4835 21.8048 21.7089L18.9764 18.8805ZM18.9844 18.8572H5.01562V22.8572H18.9844V18.8572ZM5.01562 18.8572C4.98645 18.8572 4.969 18.8548 4.961 18.8533C4.95329 18.852 4.95121 18.8509 4.95246 18.8514C4.95375 18.8519 4.95327 18.852 4.94982 18.8498C4.94616 18.8475 4.93576 18.8405 4.91906 18.8251L2.20594 21.7643C2.98871 22.4868 3.96005 22.8572 5.01562 22.8572V18.8572ZM5.03211 18.9381C5.01669 18.9214 5.0097 18.911 5.00738 18.9074C5.00521 18.9039 5.00526 18.9034 5.00576 18.9047C5.00624 18.906 5.00521 18.9039 5.00383 18.8962C5.0024 18.8882 5 18.8707 5 18.8416H1C1 19.8971 1.37034 20.8685 2.09289 21.6512L5.03211 18.9381ZM5 18.8416V4.8728H1V18.8416H5ZM5 4.8728C5 4.84347 5.00242 4.82888 5.0029 4.82628C5.00329 4.82409 5.00228 4.83039 4.99758 4.84215C4.99535 4.84771 4.99266 4.85358 4.98956 4.85947C4.98647 4.86536 4.98335 4.87051 4.98051 4.87478C4.97449 4.8838 4.97183 4.88565 4.97671 4.88077L2.14829 2.05234C1.3737 2.82693 1 3.81558 1 4.8728H5ZM4.97671 4.88077C4.99645 4.86103 5.00827 4.85257 5.0112 4.85057C5.01381 4.84878 5.01109 4.85091 5.00392 4.85391C4.9967 4.85694 4.99101 4.85833 4.98935 4.85865C4.98802 4.85891 4.99589 4.85718 5.01562 4.85718V0.857178C3.91012 0.857178 2.92062 1.28 2.14829 2.05234L4.97671 4.88077ZM5.01562 4.85718H18.9844V0.857178H5.01562V4.85718ZM16.0156 16.8728V14.8572H12.0156V16.8728H16.0156ZM14.0156 12.8572H6.98438V16.8572H14.0156V12.8572ZM4.98438 14.8572V16.8728H8.98438V14.8572H4.98438ZM6.98438 18.8728H14.0156V14.8728H6.98438V18.8728ZM19.0156 12.8416V10.8728H15.0156V12.8416H19.0156ZM17.0156 8.8728H6.98438V12.8728H17.0156V8.8728ZM4.98438 10.8728V12.8416H8.98438V10.8728H4.98438ZM6.98438 14.8416H17.0156V10.8416H6.98438V14.8416ZM19.0156 8.85718V6.84155H15.0156V8.85718H19.0156ZM17.0156 4.84155H6.98438V8.84155H17.0156V4.84155ZM4.98438 6.84155V8.85718H8.98438V6.84155H4.98438ZM6.98438 10.8572H17.0156V6.85718H6.98438V10.8572Z" fill="#1B1716" mask="url(#path-1-inside-1_2017_80095)"/>
</svg>
