<svg width="24" height="24" viewBox="0 0 24 24" fill="none" xmlns="http://www.w3.org/2000/svg">
<path d="M18.9844 3.98438C19.5469 3.98438 20.0156 4.1875 20.3906 4.59375C20.7969 4.96875 21 5.4375 21 6V20.0156C21 20.5469 20.7969 21.0156 20.3906 21.4219C20.0156 21.7969 19.5469 21.9844 18.9844 21.9844H5.01562C4.45312 21.9844 3.96875 21.7969 3.5625 21.4219C3.1875 21.0156 3 20.5469 3 20.0156V6C3 5.4375 3.1875 4.96875 3.5625 4.59375C3.96875 4.1875 4.45312 3.98438 5.01562 3.98438H6V2.01562H8.01562V3.98438H15.9844V2.01562H18V3.98438H18.9844ZM18.9844 20.0156V9.98438H5.01562V20.0156H18.9844ZM9 14.0156V12H6.98438V14.0156H9ZM12.9844 14.0156V12H11.0156V14.0156H12.9844ZM17.0156 14.0156V12H15V14.0156H17.0156ZM9 18V15.9844H6.98438V18H9ZM12.9844 18V15.9844H11.0156V18H12.9844ZM17.0156 18V15.9844H15V18H17.0156Z" fill="#404940"/>
</svg>
