<svg width="18" height="20" viewBox="0 0 18 20" fill="none" xmlns="http://www.w3.org/2000/svg">
<path d="M12.8906 6.10938L17.3438 10.6094L15.9375 12.0156L12 8.03125V19.9844H9.98438V13.9844H8.01562V19.9844H6V6.71875C4.53125 6.28125 3.32812 5.45312 2.39062 4.23438C1.45312 2.98437 0.984375 1.57812 0.984375 0.015625H3C3 1.39062 3.48438 2.5625 4.45312 3.53125C5.42188 4.5 6.59375 4.98438 7.96875 4.98438H10.5469C11.3594 4.98438 12.1406 5.35938 12.8906 6.10938ZM7.54688 3.4375C7.17188 3.03125 6.98438 2.54688 6.98438 1.98438C6.98438 1.42188 7.17188 0.953125 7.54688 0.578125C7.95312 0.203125 8.4375 0.015625 9 0.015625C9.5625 0.015625 10.0312 0.203125 10.4062 0.578125C10.8125 0.953125 11.0156 1.42188 11.0156 1.98438C11.0156 2.54688 10.8125 3.03125 10.4062 3.4375C10.0312 3.8125 9.5625 4 9 4C8.4375 4 7.95312 3.8125 7.54688 3.4375Z" fill="#1B1716"/>
</svg>
