<svg width="14" height="16" viewBox="0 0 14 16" fill="none" xmlns="http://www.w3.org/2000/svg">
<path d="M12.2383 1.98828C12.6602 1.98828 13.0117 2.14062 13.293 2.44531C13.5977 2.72656 13.75 3.07812 13.75 3.5V14.0117C13.75 14.4102 13.5977 14.7617 13.293 15.0664C13.0117 15.3477 12.6602 15.4883 12.2383 15.4883H1.76172C1.33984 15.4883 0.976562 15.3477 0.671875 15.0664C0.390625 14.7617 0.25 14.4102 0.25 14.0117V3.5C0.25 3.07812 0.390625 2.72656 0.671875 2.44531C0.976562 2.14062 1.33984 1.98828 1.76172 1.98828H2.5V0.511719H4.01172V1.98828H9.98828V0.511719H11.5V1.98828H12.2383ZM12.2383 14.0117V6.48828H1.76172V14.0117H12.2383ZM4.75 9.51172V8H3.23828V9.51172H4.75ZM7.73828 9.51172V8H6.26172V9.51172H7.73828ZM10.7617 9.51172V8H9.25V9.51172H10.7617ZM4.75 12.5V10.9883H3.23828V12.5H4.75ZM7.73828 12.5V10.9883H6.26172V12.5H7.73828ZM10.7617 12.5V10.9883H9.25V12.5H10.7617Z" fill="#36515B"/>
</svg>
