<svg width="20" height="13" viewBox="0 0 20 13" fill="none" xmlns="http://www.w3.org/2000/svg">
<path d="M2.22266 12.7761L0.847656 11.4011L7.72266 4.52612L11.375 8.22144L17.8633 0.916748L19.1523 2.20581L11.375 10.9714L7.72266 7.27612L2.22266 12.7761Z" fill="#4D7381"/>
<path d="M2.22266 12.7761L1.8691 13.1297L2.22266 13.4832L2.57621 13.1297L2.22266 12.7761ZM0.847656 11.4011L0.494103 11.0476L0.140549 11.4011L0.494103 11.7547L0.847656 11.4011ZM7.72266 4.52612L8.07827 4.17464L7.72473 3.81694L7.3691 4.17257L7.72266 4.52612ZM11.375 8.22144L11.0194 8.57292L11.3945 8.95242L11.7488 8.55348L11.375 8.22144ZM17.8633 0.916748L18.2168 0.563195L17.8417 0.188096L17.4895 0.584702L17.8633 0.916748ZM19.1523 2.20581L19.5264 2.53765L19.839 2.18532L19.5059 1.85226L19.1523 2.20581ZM11.375 10.9714L11.0194 11.3229L11.3947 11.7026L11.749 11.3033L11.375 10.9714ZM7.72266 7.27612L8.07827 6.92464L7.72473 6.56694L7.3691 6.92257L7.72266 7.27612ZM2.57621 12.4226L1.20121 11.0476L0.494103 11.7547L1.8691 13.1297L2.57621 12.4226ZM1.20121 11.7547L8.07621 4.87968L7.3691 4.17257L0.494103 11.0476L1.20121 11.7547ZM7.36704 4.8776L11.0194 8.57292L11.7306 7.86996L8.07827 4.17464L7.36704 4.8776ZM11.7488 8.55348L18.2371 1.24879L17.4895 0.584702L11.0012 7.88939L11.7488 8.55348ZM17.5097 1.2703L18.7988 2.55936L19.5059 1.85226L18.2168 0.563195L17.5097 1.2703ZM18.7783 1.87397L11.001 10.6396L11.749 11.3033L19.5264 2.53765L18.7783 1.87397ZM11.7306 10.62L8.07827 6.92464L7.36704 7.6276L11.0194 11.3229L11.7306 10.62ZM7.3691 6.92257L1.8691 12.4226L2.57621 13.1297L8.07621 7.62968L7.3691 6.92257Z" fill="#4D7381"/>
</svg>
