<svg width="16" height="14" viewBox="0 0 16 14" fill="none" xmlns="http://www.w3.org/2000/svg">
<path d="M14.0117 0.988281C14.4102 0.988281 14.75 1.14062 15.0312 1.44531C15.3359 1.72656 15.4883 2.07812 15.4883 2.5V11.5C15.4883 11.9219 15.3359 12.2852 15.0312 12.5898C14.75 12.8711 14.4102 13.0117 14.0117 13.0117H1.98828C1.58984 13.0117 1.23828 12.8711 0.933594 12.5898C0.652344 12.2852 0.511719 11.9219 0.511719 11.5V2.5C0.511719 2.07812 0.652344 1.72656 0.933594 1.44531C1.23828 1.14062 1.58984 0.988281 1.98828 0.988281H14.0117ZM4.73047 9.25V4.75H4.0625L2.76172 5.69922L3.18359 6.36719L3.85156 5.875V9.25H4.73047ZM9.125 9.25V8.51172H7.33203V8.47656C7.58984 8.21875 7.80078 8.00781 7.96484 7.84375C8.15234 7.65625 8.29297 7.51562 8.38672 7.42188C8.83203 6.97656 9.05469 6.50781 9.05469 6.01562C9.05469 5.94531 9.01953 5.79297 8.94922 5.55859C8.90234 5.30078 8.71484 5.08984 8.38672 4.92578C8.19922 4.83203 7.96484 4.77344 7.68359 4.75C7.42578 4.72656 7.16797 4.77344 6.91016 4.89062C6.60547 5.05469 6.40625 5.24219 6.3125 5.45312C6.21875 5.64062 6.17188 5.74609 6.17188 5.76953L6.91016 6.08594C6.95703 5.94531 7.02734 5.81641 7.12109 5.69922C7.23828 5.58203 7.40234 5.52344 7.61328 5.52344C7.80078 5.52344 7.94141 5.58203 8.03516 5.69922C8.15234 5.79297 8.21094 5.92187 8.21094 6.08594C8.21094 6.32031 8.07031 6.57812 7.78906 6.85938C7.67188 7 7.47266 7.21094 7.19141 7.49219C6.93359 7.75 6.60547 8.07812 6.20703 8.47656V9.25H9.125ZM13.0625 8.61719C13.1797 8.42969 13.2383 8.21875 13.2383 7.98438C13.2617 7.72656 13.2031 7.49219 13.0625 7.28125C12.9219 7.11719 12.7461 6.98828 12.5352 6.89453V6.85938C12.6992 6.78906 12.8281 6.66016 12.9219 6.47266C13.0391 6.33203 13.0977 6.15625 13.0977 5.94531C13.0977 5.71094 13.0391 5.5 12.9219 5.3125C12.8984 5.26563 12.793 5.16016 12.6055 4.99609C12.418 4.83203 12.1133 4.75 11.6914 4.75C11.3867 4.75 11.1289 4.80859 10.918 4.92578C10.7305 5.04297 10.5898 5.18359 10.4961 5.34766C10.4023 5.48828 10.3438 5.59375 10.3203 5.66406L11.0586 5.98047C11.1055 5.86328 11.1758 5.75781 11.2695 5.66406C11.3633 5.57031 11.5039 5.52344 11.6914 5.52344C11.8555 5.52344 11.9844 5.57031 12.0781 5.66406C12.1953 5.73438 12.2539 5.83984 12.2539 5.98047C12.2539 6.21484 12.1719 6.36719 12.0078 6.4375C11.8672 6.50781 11.7266 6.54297 11.5859 6.54297H11.2695V7.28125H11.6211C11.832 7.28125 12.0078 7.32812 12.1484 7.42188C12.3125 7.51562 12.3945 7.66797 12.3945 7.87891C12.3945 8.06641 12.3242 8.20703 12.1836 8.30078C12.043 8.39453 11.8906 8.44141 11.7266 8.44141C11.5391 8.44141 11.3867 8.39453 11.2695 8.30078C11.1523 8.20703 11.0703 8.11328 11.0234 8.01953C11 7.90234 10.9883 7.83203 10.9883 7.80859L10.2148 8.125C10.2852 8.42969 10.4023 8.66406 10.5664 8.82812C10.7305 8.96875 10.8945 9.07422 11.0586 9.14453C11.2461 9.19141 11.3984 9.22656 11.5156 9.25C11.6562 9.25 11.7266 9.25 11.7266 9.25C12.0312 9.25 12.2773 9.20312 12.4648 9.10938C12.6523 9.01562 12.793 8.92188 12.8867 8.82812C12.9805 8.71094 13.0391 8.64062 13.0625 8.61719Z" fill="#36515B"/>
</svg>
