<svg width="24" height="75" viewBox="0 0 24 75" fill="none" xmlns="http://www.w3.org/2000/svg">
<mask id="path-1-inside-1_2017_79942" fill="white">
<path d="M18.6875 24.7144C19.3958 24.7144 20 24.9852 20.5 25.5269C21.0417 26.0685 21.3125 26.6935 21.3125 27.4019V48.7144L12 44.7144L2.6875 48.7144V27.4019C2.6875 26.6935 2.9375 26.0685 3.4375 25.5269C3.97917 24.9852 4.60417 24.7144 5.3125 24.7144H18.6875Z"/>
</mask>
<path d="M20.5 25.5269L19.0304 26.8834L19.0575 26.9128L19.0858 26.9411L20.5 25.5269ZM21.3125 48.7144L20.5232 50.552L23.3125 51.7501V48.7144H21.3125ZM12 44.7144L12.7893 42.8767L12 42.5377L11.2107 42.8767L12 44.7144ZM2.6875 48.7144H0.6875V51.7501L3.47683 50.552L2.6875 48.7144ZM3.4375 25.5269L2.02329 24.1126L1.99501 24.1409L1.96789 24.1703L3.4375 25.5269ZM18.6875 26.7144C18.8125 26.7144 18.8916 26.7331 19.0304 26.8834L21.9696 24.1703C21.1084 23.2373 19.9792 22.7144 18.6875 22.7144V26.7144ZM19.0858 26.9411C19.2861 27.1414 19.3125 27.2698 19.3125 27.4019H23.3125C23.3125 26.1172 22.7972 24.9957 21.9142 24.1126L19.0858 26.9411ZM19.3125 27.4019V48.7144H23.3125V27.4019H19.3125ZM22.1018 46.8767L12.7893 42.8767L11.2107 46.552L20.5232 50.552L22.1018 46.8767ZM11.2107 42.8767L1.89817 46.8767L3.47683 50.552L12.7893 46.552L11.2107 42.8767ZM4.6875 48.7144V27.4019H0.6875V48.7144H4.6875ZM4.6875 27.4019C4.6875 27.2184 4.73284 27.0722 4.90711 26.8834L1.96789 24.1703C1.14216 25.0648 0.6875 26.1686 0.6875 27.4019H4.6875ZM4.85171 26.9411C5.05203 26.7407 5.18047 26.7144 5.3125 26.7144V22.7144C4.02787 22.7144 2.9063 23.2296 2.02329 24.1126L4.85171 26.9411ZM5.3125 26.7144H18.6875V22.7144H5.3125V26.7144Z" fill="#36515B" mask="url(#path-1-inside-1_2017_79942)"/>
</svg>
