<svg width="20" height="20" viewBox="0 0 20 20" fill="none" xmlns="http://www.w3.org/2000/svg">
<path d="M4.32812 15.6719C5.92188 17.2344 7.8125 18.0156 10 18.0156C12.1875 18.0156 14.0625 17.2344 15.625 15.6719C17.2188 14.0781 18.0156 12.1875 18.0156 10C18.0156 9.3125 17.9062 8.5625 17.6875 7.75C17 7.90625 16.2344 7.98438 15.3906 7.98438C13.9531 7.98438 12.4375 7.57812 10.8438 6.76562C9.28125 5.92188 8.09375 4.92188 7.28125 3.76562C6.25 6.26562 4.5 8.0625 2.03125 9.15625C2 9.34375 1.98438 9.625 1.98438 10C1.98438 12.1875 2.76562 14.0781 4.32812 15.6719ZM2.92188 2.96875C4.89062 1 7.25 0.015625 10 0.015625C12.75 0.015625 15.0938 1 17.0312 2.96875C19 4.90625 19.9844 7.25 19.9844 10C19.9844 12.75 19 15.1094 17.0312 17.0781C15.0938 19.0156 12.75 19.9844 10 19.9844C7.25 19.9844 4.89062 19.0156 2.92188 17.0781C0.984375 15.1094 0.015625 12.75 0.015625 10C0.015625 7.25 0.984375 4.90625 2.92188 2.96875ZM12.1094 10.1406C12.3594 9.89062 12.6562 9.76562 13 9.76562C13.3438 9.76562 13.6406 9.89062 13.8906 10.1406C14.1406 10.3594 14.2656 10.6406 14.2656 10.9844C14.2656 11.3281 14.1406 11.625 13.8906 11.875C13.6406 12.125 13.3438 12.25 13 12.25C12.6562 12.25 12.3594 12.125 12.1094 11.875C11.8594 11.625 11.7344 11.3281 11.7344 10.9844C11.7344 10.6406 11.8594 10.3594 12.1094 10.1406ZM6.10938 10.1406C6.35938 9.89062 6.65625 9.76562 7 9.76562C7.34375 9.76562 7.64062 9.89062 7.89062 10.1406C8.14062 10.3594 8.26562 10.6406 8.26562 10.9844C8.26562 11.3281 8.14062 11.625 7.89062 11.875C7.64062 12.125 7.34375 12.25 7 12.25C6.65625 12.25 6.35938 12.125 6.10938 11.875C5.85938 11.625 5.73438 11.3281 5.73438 10.9844C5.73438 10.6406 5.85938 10.3594 6.10938 10.1406Z" fill="#1B1716"/>
</svg>
