<svg width="24" height="14" viewBox="0 0 24 14" fill="none" xmlns="http://www.w3.org/2000/svg">
<mask id="path-1-inside-1_2017_80085" fill="white">
<path d="M5.3125 0.0268555H24V2.71436H5.3125V0.0268555ZM5.3125 13.4019V10.7144H24V13.4019H5.3125ZM5.3125 8.02686V5.40186H24V8.02686H5.3125ZM0 2.71436V0.0268555H2.6875V2.71436H0ZM0 13.4019V10.7144H2.6875V13.4019H0ZM0 8.02686V5.40186H2.6875V8.02686H0Z"/>
</mask>
<path d="M5.3125 0.0268555H24V2.71436H5.3125V0.0268555ZM5.3125 13.4019V10.7144H24V13.4019H5.3125ZM5.3125 8.02686V5.40186H24V8.02686H5.3125ZM0 2.71436V0.0268555H2.6875V2.71436H0ZM0 13.4019V10.7144H2.6875V13.4019H0ZM0 8.02686V5.40186H2.6875V8.02686H0Z" fill="#36515B"/>
<path d="M5.3125 0.0268555V-1.97314H3.3125V0.0268555H5.3125ZM24 0.0268555H26V-1.97314H24V0.0268555ZM24 2.71436V4.71436H26V2.71436H24ZM5.3125 2.71436H3.3125V4.71436H5.3125V2.71436ZM5.3125 13.4019H3.3125V15.4019H5.3125V13.4019ZM5.3125 10.7144V8.71436H3.3125V10.7144H5.3125ZM24 10.7144H26V8.71436H24V10.7144ZM24 13.4019V15.4019H26V13.4019H24ZM5.3125 8.02686H3.3125V10.0269H5.3125V8.02686ZM5.3125 5.40186V3.40186H3.3125V5.40186H5.3125ZM24 5.40186H26V3.40186H24V5.40186ZM24 8.02686V10.0269H26V8.02686H24ZM0 2.71436H-2V4.71436H0V2.71436ZM0 0.0268555V-1.97314H-2V0.0268555H0ZM2.6875 0.0268555H4.6875V-1.97314H2.6875V0.0268555ZM2.6875 2.71436V4.71436H4.6875V2.71436H2.6875ZM0 13.4019H-2V15.4019H0V13.4019ZM0 10.7144V8.71436H-2V10.7144H0ZM2.6875 10.7144H4.6875V8.71436H2.6875V10.7144ZM2.6875 13.4019V15.4019H4.6875V13.4019H2.6875ZM0 8.02686H-2V10.0269H0V8.02686ZM0 5.40186V3.40186H-2V5.40186H0ZM2.6875 5.40186H4.6875V3.40186H2.6875V5.40186ZM2.6875 8.02686V10.0269H4.6875V8.02686H2.6875ZM5.3125 2.02686H24V-1.97314H5.3125V2.02686ZM22 0.0268555V2.71436H26V0.0268555H22ZM24 0.714355H5.3125V4.71436H24V0.714355ZM7.3125 2.71436V0.0268555H3.3125V2.71436H7.3125ZM7.3125 13.4019V10.7144H3.3125V13.4019H7.3125ZM5.3125 12.7144H24V8.71436H5.3125V12.7144ZM22 10.7144V13.4019H26V10.7144H22ZM24 11.4019H5.3125V15.4019H24V11.4019ZM7.3125 8.02686V5.40186H3.3125V8.02686H7.3125ZM5.3125 7.40186H24V3.40186H5.3125V7.40186ZM22 5.40186V8.02686H26V5.40186H22ZM24 6.02686H5.3125V10.0269H24V6.02686ZM2 2.71436V0.0268555H-2V2.71436H2ZM0 2.02686H2.6875V-1.97314H0V2.02686ZM0.6875 0.0268555V2.71436H4.6875V0.0268555H0.6875ZM2.6875 0.714355H0V4.71436H2.6875V0.714355ZM2 13.4019V10.7144H-2V13.4019H2ZM0 12.7144H2.6875V8.71436H0V12.7144ZM0.6875 10.7144V13.4019H4.6875V10.7144H0.6875ZM2.6875 11.4019H0V15.4019H2.6875V11.4019ZM2 8.02686V5.40186H-2V8.02686H2ZM0 7.40186H2.6875V3.40186H0V7.40186ZM0.6875 5.40186V8.02686H4.6875V5.40186H0.6875ZM2.6875 6.02686H0V10.0269H2.6875V6.02686Z" fill="#36515B" mask="url(#path-1-inside-1_2017_80085)"/>
</svg>
