<svg width="19" height="20" viewBox="0 0 19 20" fill="none" xmlns="http://www.w3.org/2000/svg">
<mask id="path-1-inside-1_2017_79974" fill="white">
<path d="M0 11.5H8.01562V19.5156H0V11.5ZM11.2969 18.6719C10.4219 17.7969 9.98438 16.7344 9.98438 15.4844C9.98438 14.2344 10.4219 13.1719 11.2969 12.2969C12.1719 11.4219 13.2344 10.9844 14.4844 10.9844C15.7344 10.9844 16.7969 11.4219 17.6719 12.2969C18.5469 13.1719 18.9844 14.2344 18.9844 15.4844C18.9844 16.7344 18.5469 17.7969 17.6719 18.6719C16.7969 19.5469 15.7344 19.9844 14.4844 19.9844C13.2344 19.9844 12.1719 19.5469 11.2969 18.6719ZM9 0.015625L14.4844 9.01562H3.51562L9 0.015625Z"/>
</mask>
<path d="M0 11.5V9.5H-2V11.5H0ZM8.01562 11.5H10.0156V9.5H8.01562V11.5ZM8.01562 19.5156V21.5156H10.0156V19.5156H8.01562ZM0 19.5156H-2V21.5156H0V19.5156ZM9 0.015625L10.7079 -1.02512L9 -3.82779L7.29212 -1.02512L9 0.015625ZM14.4844 9.01562V11.0156H18.0452L16.1923 7.97488L14.4844 9.01562ZM3.51562 9.01562L1.80774 7.97488L-0.0452077 11.0156H3.51562V9.01562ZM0 13.5H8.01562V9.5H0V13.5ZM6.01562 11.5V19.5156H10.0156V11.5H6.01562ZM8.01562 17.5156H0V21.5156H8.01562V17.5156ZM2 19.5156V11.5H-2V19.5156H2ZM12.7111 17.2577C12.2154 16.762 11.9844 16.21 11.9844 15.4844H7.98438C7.98438 17.2588 8.62833 18.8318 9.88266 20.0861L12.7111 17.2577ZM11.9844 15.4844C11.9844 14.7588 12.2154 14.2068 12.7111 13.7111L9.88266 10.8827C8.62833 12.137 7.98438 13.71 7.98438 15.4844H11.9844ZM12.7111 13.7111C13.2068 13.2154 13.7588 12.9844 14.4844 12.9844V8.98438C12.71 8.98438 11.137 9.62833 9.88266 10.8827L12.7111 13.7111ZM14.4844 12.9844C15.21 12.9844 15.762 13.2154 16.2577 13.7111L19.0861 10.8827C17.8318 9.62833 16.2588 8.98438 14.4844 8.98438V12.9844ZM16.2577 13.7111C16.7533 14.2068 16.9844 14.7588 16.9844 15.4844H20.9844C20.9844 13.71 20.3404 12.137 19.0861 10.8827L16.2577 13.7111ZM16.9844 15.4844C16.9844 16.21 16.7533 16.762 16.2577 17.2577L19.0861 20.0861C20.3404 18.8318 20.9844 17.2588 20.9844 15.4844H16.9844ZM16.2577 17.2577C15.762 17.7533 15.21 17.9844 14.4844 17.9844V21.9844C16.2588 21.9844 17.8318 21.3404 19.0861 20.0861L16.2577 17.2577ZM14.4844 17.9844C13.7588 17.9844 13.2068 17.7533 12.7111 17.2577L9.88266 20.0861C11.137 21.3404 12.71 21.9844 14.4844 21.9844V17.9844ZM7.29212 1.05637L12.7765 10.0564L16.1923 7.97488L10.7079 -1.02512L7.29212 1.05637ZM14.4844 7.01562H3.51562V11.0156H14.4844V7.01562ZM5.22351 10.0564L10.7079 1.05637L7.29212 -1.02512L1.80774 7.97488L5.22351 10.0564Z" fill="#1B1716" mask="url(#path-1-inside-1_2017_79974)"/>
</svg>
